# xmcd
#
# Track frame offsets:
# 150
# 21203
# 39497
# 53666
# 73596
# 87332
# 103918
# 120079
# 134413
# 152367
# 168248
# 183189
#
# Disc length: 2643 seconds
#
#
# Revision: 0
# Processed by: cddbd v1.5.2PL0 Copyright (c) Steve Scherf et al.
# Submitted via: FreeRIP 2.951 
#
DISCID=8f0a510c
DTITLE=Edson e Evandro - Sonhos
DYEAR=2002
DGENRE=Country
TTITLE0=Teu Jogo
TTITLE1=Sonhos
TTITLE2=Sexta-Feira
TTITLE3=Quando o medo é maior que a paixão
TTITLE4=Festa louca da paixão
TTITLE5=A saudade vem
TTITLE6=Deixa eu te amar
TTITLE7=Coisinha linda
TTITLE8=O bicho vai pegar
TTITLE9=Um erro a mais
TTITLE10=Pimenta Malagueta
TTITLE11=Armadilha
EXTD=Contato para shows (14) 38421132
EXTT0=
EXTT1=
EXTT2=
EXTT3=
EXTT4=
EXTT5=
EXTT6=
EXTT7=
EXTT8=
EXTT9=
EXTT10=
EXTT11=
PLAYORDER=
